<?xml version="1.0" encoding="utf-8"?>
<!-- Generator: Adobe Illustrator 26.5.1, SVG Export Plug-In . SVG Version: 6.00 Build 0)  -->
<svg version="1.1" id="Ebene_1" xmlns="http://www.w3.org/2000/svg" xmlns:xlink="http://www.w3.org/1999/xlink" x="0px" y="0px"
	 viewBox="0 0 56 56" style="enable-background:new 0 0 56 56;" xml:space="preserve">
<g>
	<path d="M4.08,9.73h4.08L22.8,30.08c0.54,0.75,1.07,1.51,1.58,2.29s0.97,1.55,1.38,2.29h0.1c-0.07-1.19-0.12-2.38-0.15-3.57
		c-0.03-1.19-0.05-2.38-0.05-3.57V9.73h4.59v32.13h-4.08L11.68,21.77c-0.51-0.71-1.04-1.52-1.58-2.42s-1.05-1.79-1.53-2.68h-0.1
		c0.07,1.43,0.12,2.86,0.15,4.28c0.03,1.43,0.05,2.86,0.05,4.28v16.63H4.08V9.73z"/>
	<path d="M35.29,9.73h4.69v28.15H53.7v3.98H35.29V9.73z"/>
</g>
</svg>
