<?xml version="1.0" encoding="utf-8"?>
<!-- Generator: Adobe Illustrator 26.5.1, SVG Export Plug-In . SVG Version: 6.00 Build 0)  -->
<svg version="1.1" id="Ebene_1" xmlns="http://www.w3.org/2000/svg" xmlns:xlink="http://www.w3.org/1999/xlink" x="0px" y="0px"
	 viewBox="0 0 56 56" style="enable-background:new 0 0 56 56;" xml:space="preserve">
<style type="text/css">
	.st0{fill:#FFFFFF;}
</style>
<g>
	<g>
		<g>
			<path d="M28,0.25c-15.1,0-27.35,12.24-27.35,27.35C0.65,42.7,12.9,54.94,28,54.94S55.35,42.7,55.35,27.59
				C55.35,12.49,43.1,0.25,28,0.25z M30.13,41.05h-3.42L14.58,24.22c-0.43-0.59-0.87-1.27-1.32-2.03c-0.45-0.75-0.88-1.5-1.28-2.24
				h-0.08c0.06,1.2,0.1,2.4,0.13,3.58c0.03,1.2,0.04,2.4,0.04,3.58v13.93H8.21V14.14h3.42l12.26,17.04c0.45,0.63,0.9,1.26,1.32,1.92
				c0.43,0.65,0.81,1.3,1.16,1.92h0.08c-0.06-1-0.1-1.99-0.13-2.99c-0.03-1-0.04-1.99-0.04-2.99v-14.9h3.84V41.05z M34.35,41.05
				V14.14h3.93v23.58h11.49v3.33H34.35z"/>
			<path class="st0" d="M26.29,29.04c0,1,0.02,1.99,0.04,2.99c0.03,1,0.07,1.99,0.13,2.99h-0.08c-0.34-0.62-0.73-1.26-1.16-1.92
				c-0.43-0.65-0.87-1.29-1.32-1.92L11.63,14.14H8.21v26.91h3.84V27.12c0-1.19-0.02-2.39-0.04-3.58c-0.03-1.19-0.07-2.39-0.13-3.58
				h0.08c0.4,0.75,0.83,1.49,1.28,2.24c0.45,0.75,0.9,1.43,1.32,2.03l12.14,16.83h3.42V14.14h-3.84V29.04z"/>
			<polygon class="st0" points="38.28,37.72 38.28,14.14 34.35,14.14 34.35,41.05 49.77,41.05 49.77,37.72 			"/>
		</g>
	</g>
</g>
</svg>
